<?xml version="1.0" encoding="UTF-8" standalone="no"?>
<!-- Generator: Adobe Illustrator 24.1.1, SVG Export Plug-In . SVG Version: 6.00 Build 0)  -->

<svg
   xmlns:dc="http://purl.org/dc/elements/1.1/"
   xmlns:cc="http://creativecommons.org/ns#"
   xmlns:rdf="http://www.w3.org/1999/02/22-rdf-syntax-ns#"
   xmlns:svg="http://www.w3.org/2000/svg"
   xmlns="http://www.w3.org/2000/svg"
   xmlns:sodipodi="http://sodipodi.sourceforge.net/DTD/sodipodi-0.dtd"
   xmlns:inkscape="http://www.inkscape.org/namespaces/inkscape"
   version="1.1"
   id="Vrstva_1"
   x="0px"
   y="0px"
   viewBox="0 0 165 65"
   xml:space="preserve"
   sodipodi:docname="logo bold .svg"
   width="165"
   height="65"
   inkscape:version="0.92.4 (5da689c313, 2019-01-14)"><metadata
   id="metadata37"><rdf:RDF><cc:Work
       rdf:about=""><dc:format>image/svg+xml</dc:format><dc:type
         rdf:resource="http://purl.org/dc/dcmitype/StillImage" /><dc:title></dc:title></cc:Work></rdf:RDF></metadata><defs
   id="defs35" /><sodipodi:namedview
   pagecolor="#ffffff"
   bordercolor="#666666"
   borderopacity="1"
   objecttolerance="10"
   gridtolerance="10"
   guidetolerance="10"
   inkscape:pageopacity="0"
   inkscape:pageshadow="2"
   inkscape:window-width="2560"
   inkscape:window-height="1377"
   id="namedview33"
   showgrid="false"
   inkscape:zoom="7.7790055"
   inkscape:cx="85.254723"
   inkscape:cy="59.202876"
   inkscape:window-x="-8"
   inkscape:window-y="-8"
   inkscape:window-maximized="1"
   inkscape:current-layer="Vrstva_1" />
<style
   type="text/css"
   id="style2">
	.st0{enable-background:new    ;}
	.st1{fill:#5C74CF;}
</style>
<g
   id="g3766"
   transform="translate(-3.4291002,0.80989072)"><g
     transform="translate(-413,-33.947)"
     id="Group_2">
	<g
   transform="translate(413,15.947)"
   id="Group_1">
		<g
   style="enable-background:new"
   id="g22"
   class="st0">
			<path
   style="fill:#5c74cf"
   inkscape:connector-curvature="0"
   id="path4"
   d="m 44.39,37.57 v 12.88 h 2.72 v 3.36 h -8.82 v -3.36 h 2.46 V 37.57 h -1.96 c -2.45,0 -4.17,0.29 -5.18,0.87 -1.01,0.58 -1.51,1.41 -1.51,2.49 0,1.08 0.48,1.62 1.43,1.62 0.88,0 1.32,-0.6 1.32,-1.79 h 3.5 c 0,1.44 -0.38,2.66 -1.15,3.65 -0.77,1 -1.99,1.5 -3.67,1.5 -1.68,0 -2.92,-0.48 -3.72,-1.43 -0.8,-0.95 -1.2,-2.1 -1.2,-3.44 0,-2.13 0.97,-3.8 2.9,-5.01 1.93,-1.21 5.02,-1.82 9.25,-1.82 h 9.86 v 5.8 h -3.33 v -2.44 z"
   class="st1" />
			<path
   style="fill:#5c74cf"
   inkscape:connector-curvature="0"
   id="path6"
   d="m 52.71,42.89 v -3.08 h 5.8 v 10.92 h 2.44 v 3.08 h -8.26 v -3.08 h 2.18 v -7.84 z m 3.97,-4.45 c -0.58,0 -1.05,-0.21 -1.41,-0.62 -0.36,-0.41 -0.55,-0.91 -0.55,-1.48 0,-0.58 0.2,-1.08 0.59,-1.5 0.39,-0.42 0.88,-0.63 1.47,-0.63 0.59,0 1.06,0.21 1.41,0.62 0.35,0.41 0.53,0.91 0.53,1.48 0,0.58 -0.2,1.08 -0.59,1.5 -0.39,0.42 -0.87,0.63 -1.45,0.63 z"
   class="st1" />
			<path
   style="fill:#5c74cf"
   inkscape:connector-curvature="0"
   id="path8"
   d="m 75.08,52.22 c -1.46,1.25 -3.29,1.88 -5.52,1.88 -2.22,0 -3.93,-0.69 -5.14,-2.06 -1.21,-1.37 -1.81,-3.11 -1.81,-5.22 0,-2.11 0.6,-3.85 1.81,-5.22 1.21,-1.37 2.81,-2.06 4.82,-2.06 2.01,0 3.73,0.38 5.17,1.15 v 4.59 h -3.22 v -2.16 c -0.5,-0.15 -1.07,-0.22 -1.71,-0.22 -1.01,0 -1.8,0.36 -2.37,1.09 -0.57,0.73 -0.85,1.67 -0.85,2.83 0,1.16 0.28,2.1 0.85,2.83 0.57,0.73 1.29,1.09 2.16,1.09 0.87,0 1.6,-0.08 2.18,-0.25 0.58,-0.17 1,-0.32 1.23,-0.46 0.23,-0.14 0.55,-0.35 0.94,-0.63 z"
   class="st1" />
			<path
   style="fill:#5c74cf"
   inkscape:connector-curvature="0"
   id="path10"
   d="m 75.81,35.89 v -3.08 h 5.8 V 45.1 l 0.98,-0.36 1.88,-1.85 h -0.95 v -3.08 h 7.28 v 3.08 h -1.57 l -3.58,3.56 3.61,4.42 h 2.13 v 2.44 c -0.41,0.24 -0.78,0.41 -1.09,0.5 -0.32,0.09 -0.83,0.14 -1.54,0.14 -0.71,0 -1.29,-0.13 -1.74,-0.38 -0.45,-0.25 -0.87,-0.64 -1.26,-1.16 l -3.25,-4.26 -0.9,0.36 v 2.21 h 1.88 v 3.08 h -7.7 v -3.08 h 2.18 V 35.89 Z"
   class="st1" />
			<path
   style="fill:#5c74cf"
   inkscape:connector-curvature="0"
   id="path12"
   d="m 105.46,46.7 v 1.48 H 96 c 0.06,0.75 0.37,1.36 0.94,1.83 0.57,0.48 1.24,0.71 2,0.71 0.76,0 1.41,-0.06 1.95,-0.17 0.53,-0.11 0.91,-0.21 1.12,-0.31 0.21,-0.1 0.54,-0.26 0.97,-0.5 l 0.67,-0.36 1.46,2.83 c -1.53,1.25 -3.44,1.88 -5.71,1.88 -2.27,0 -4.02,-0.69 -5.22,-2.06 -1.2,-1.37 -1.81,-3.11 -1.81,-5.22 0,-2.11 0.6,-3.85 1.81,-5.22 1.21,-1.37 2.85,-2.06 4.93,-2.06 2.08,0 3.66,0.67 4.75,2.02 1.06,1.34 1.6,3.06 1.6,5.15 z m -4.41,-3.14 c -0.44,-0.45 -1.06,-0.67 -1.88,-0.67 -0.81,0 -1.48,0.23 -2.02,0.69 -0.53,0.46 -0.88,1.05 -1.05,1.78 h 5.71 c -0.07,-0.75 -0.32,-1.35 -0.76,-1.8 z"
   class="st1" />
			<path
   style="fill:#5c74cf"
   inkscape:connector-curvature="0"
   id="path14"
   d="m 106.86,42.89 v -2.8 l 2.44,-0.28 c 0.62,-1.55 1.02,-2.78 1.2,-3.7 h 2.44 v 3.7 h 3.33 v 3.08 h -3.33 v 6.92 c 0,0.32 0.05,0.56 0.15,0.71 0.1,0.16 0.33,0.24 0.69,0.24 0.35,0 0.97,-0.18 1.85,-0.53 l 1.34,2.86 c -1.19,0.67 -2.47,1.01 -3.82,1.01 -1.35,0 -2.33,-0.35 -2.94,-1.06 -0.61,-0.71 -0.91,-1.63 -0.91,-2.77 v -7.36 h -2.44 z"
   class="st1" />
			<path
   style="fill:#5c74cf"
   inkscape:connector-curvature="0"
   id="path16"
   d="m 131.61,46.7 v 1.48 h -9.46 c 0.06,0.75 0.37,1.36 0.94,1.83 0.57,0.48 1.24,0.71 2,0.71 0.76,0 1.41,-0.06 1.95,-0.17 0.53,-0.11 0.91,-0.21 1.12,-0.31 0.21,-0.1 0.54,-0.26 0.97,-0.5 l 0.67,-0.36 1.46,2.83 c -1.53,1.25 -3.44,1.88 -5.71,1.88 -2.27,0 -4.02,-0.69 -5.22,-2.06 -1.2,-1.37 -1.81,-3.11 -1.81,-5.22 0,-2.11 0.6,-3.85 1.81,-5.22 1.21,-1.37 2.85,-2.06 4.93,-2.06 2.08,0 3.66,0.67 4.75,2.02 1.06,1.34 1.6,3.06 1.6,5.15 z m -4.41,-3.14 c -0.44,-0.45 -1.06,-0.67 -1.88,-0.67 -0.81,0 -1.48,0.23 -2.02,0.69 -0.53,0.46 -0.88,1.05 -1.05,1.78 h 5.71 c -0.06,-0.75 -0.32,-1.35 -0.76,-1.8 z"
   class="st1" />
			<path
   style="fill:#5c74cf"
   inkscape:connector-curvature="0"
   id="path18"
   d="m 146.53,46.7 v 1.48 h -9.46 c 0.06,0.75 0.37,1.36 0.94,1.83 0.57,0.48 1.24,0.71 2,0.71 0.76,0 1.41,-0.06 1.95,-0.17 0.53,-0.11 0.91,-0.21 1.12,-0.31 0.21,-0.1 0.54,-0.26 0.97,-0.5 l 0.67,-0.36 1.46,2.83 c -1.53,1.25 -3.44,1.88 -5.71,1.88 -2.27,0 -4.02,-0.69 -5.22,-2.06 -1.2,-1.37 -1.81,-3.11 -1.81,-5.22 0,-2.11 0.6,-3.85 1.81,-5.22 1.21,-1.37 2.85,-2.06 4.93,-2.06 2.08,0 3.66,0.67 4.75,2.02 1.06,1.34 1.6,3.06 1.6,5.15 z m -4.41,-3.14 c -0.44,-0.45 -1.06,-0.67 -1.88,-0.67 -0.81,0 -1.48,0.23 -2.02,0.69 -0.53,0.46 -0.88,1.05 -1.05,1.78 h 5.71 c -0.06,-0.75 -0.32,-1.35 -0.76,-1.8 z"
   class="st1" />
			<path
   style="fill:#5c74cf"
   inkscape:connector-curvature="0"
   id="path20"
   d="m 153.73,50.73 h 2.02 v 3.08 h -7.81 v -3.08 h 2.16 v -7.84 h -2.16 v -3.08 h 5.26 l 0.34,1.48 c 1.74,-1.18 3.25,-1.76 4.54,-1.76 l 1.99,0.42 -1.06,3.56 -1.26,-0.34 c -1.27,0 -2.6,0.39 -4,1.18 v 6.38 z"
   class="st1" />
		</g>
		<g
   transform="matrix(0.98805843,0,0,0.9727624,-0.03692351,2.6753981)"
   id="Path_1">
			<path
   style="fill:#5c74cf;stroke-width:0.72090632"
   inkscape:connector-curvature="0"
   id="path24"
   d="m 25.25,62.881117 h -1.91 c -6.73,0.0624 -17.56,-0.332608 -18.82,0.940672 1.26,1.273279 12.09,0.883497 18.82,0.945867 h 1.33 c 58.53,0.09874 144.1,0.337801 144.82,-0.945867 -0.72,-1.283677 -85.72,-1.039414 -144.24,-0.940672 z"
   class="st1" />
		</g>
		<g
   transform="matrix(0.5905591,0,0,0.92917251,8.0670799,2.6089382)"
   id="Path_2">
			<path
   style="fill:#5c74cf"
   inkscape:connector-curvature="0"
   id="path27"
   d="M 23.53,57.86 C 23,45.82 24.33,27.08 21.84,22.15 c -2.49,4.94 -1.16,23.68 -1.69,35.71 0.18,7.98 -0.65,18.24 1.69,21.33 2.34,-3.09 1.51,-13.35 1.69,-21.33 z"
   class="st1" />
		</g>
	</g>
</g></g>
</svg>