<?xml version="1.0" encoding="UTF-8" standalone="no"?>
<!DOCTYPE svg PUBLIC "-//W3C//DTD SVG 1.1//EN" "http://www.w3.org/Graphics/SVG/1.1/DTD/svg11.dtd">
<svg width="100%" height="100%" viewBox="0 0 4481 5030" version="1.1" xmlns="http://www.w3.org/2000/svg" xmlns:xlink="http://www.w3.org/1999/xlink" xml:space="preserve" xmlns:serif="http://www.serif.com/" style="fill-rule:evenodd;clip-rule:evenodd;stroke-linecap:round;stroke-linejoin:round;stroke-miterlimit:1.5;">
    <g transform="matrix(1,0,0,1,2258.85,2014.79)">
        <g transform="matrix(-7.94221,2.52305,2.52305,7.94221,619.676,1765.93)">
            <path d="M-2.259,-37.727C-2.11,-56.048 -1.432,-63.828 -0.821,-74.018C-24.027,-67.71 -41.276,-61.601 -53.845,-55.649C-53.845,-55.649 -54.014,-48.669 -49.113,-23.548C-39.56,-27.862 -28.897,-30.856 -16.06,-33.936C-2.658,-37.151 -1.201,-39.839 -2.259,-37.727Z" style="fill-opacity:0.5;fill-rule:nonzero;"/>
        </g>
        <g transform="matrix(1,0,0,1.00868,-11064.5,-7415.54)">
            <path d="M10031,8023.61C10031,8023.61 9693.73,8007.61 9395.97,7939.81C9165,7887.21 8875.97,7744.95 8805.66,7608.4C9219.87,7707.75 9596.77,7746.97 9945.64,7736.78C9955.21,7822.46 9979.18,7920.64 10031,8023.61Z"/>
        </g>
        <g transform="matrix(8.41874,0,0,8.50064,-1170.09,-793.842)">
            <path d="M166.221,59.826C158.219,94.595 155.765,95.606 6.207,113.971C6.207,113.971 15.677,73.161 22.826,27.663C27.885,-4.537 133.791,-1.808 143.306,1.327C151.617,4.066 166.221,59.826 166.221,59.826Z" style="fill-rule:nonzero;"/>
        </g>
        <g transform="matrix(1.01488,0,0,1,-11189,-7520.12)">
            <path d="M10175.5,9437.18C9925.86,9187.61 9626.68,9103.91 9626.68,9103.91C9499.22,9186.32 9476.44,9317.94 9499.57,9317.94C9814.16,9361.42 9921.29,9405.05 10084.5,9612L10175.5,9437.18Z" style="fill-opacity:0.75;"/>
        </g>
        <g transform="matrix(8.33333,0,0,8.33333,904.655,1566.98)">
            <path d="M1.745,-94.204C10.812,-96.43 23.452,-94.681 29.255,-88.981C38.383,-80.016 39.636,-76.024 40.915,-63.516C42.194,-51.008 36.919,-32.804 31.087,-29.008C28.422,-46.477 25.265,-59.674 1.745,-94.204Z" style="fill-rule:nonzero;"/>
        </g>
        <g transform="matrix(8.25053,0.904384,-0.808222,7.37327,-1545.92,2273.78)">
            <path d="M6.349,-66.884C6.349,-66.884 -1.641,-34.359 26.182,-27.645C50.984,-21.661 64.474,-38.428 64.474,-38.428C42.167,-62.534 25.48,-65.134 6.349,-66.884Z" style="fill-rule:nonzero;"/>
        </g>
        <g transform="matrix(6.53819,0,0,6.53819,-8688.1,-1230.49)">
            <path d="M1322.52,424.982L1303.1,424.982L1303.1,444.403L1322.52,444.403L1322.52,424.982ZM1303.82,425.704L1303.82,443.681L1321.8,443.681L1321.8,425.704L1303.82,425.704Z" style="fill:none;"/>
        </g>
        <g transform="matrix(6.53819,0,0,6.53819,-8688.1,-791.145)">
            <path d="M1354.93,391.384L1335.51,391.384L1335.51,410.805L1354.93,410.805L1354.93,391.384ZM1336.23,392.106L1336.23,410.083L1354.21,410.083L1354.21,392.106L1336.23,392.106Z" style="fill:none;"/>
        </g>
        <g transform="matrix(6.53819,0,0,6.53819,-8688.1,-789.014)">
            <path d="M1287.92,391.221L1268.5,391.221L1268.5,410.642L1287.92,410.642L1287.92,391.221ZM1269.22,391.943L1269.22,409.92L1287.2,409.92L1287.2,391.943L1269.22,391.943Z" style="fill:none;"/>
        </g>
        <g transform="matrix(6.53819,0,0,6.53819,-8688.1,-336.14)">
            <path d="M1322.41,357.008L1302.99,357.008L1302.99,376.429L1322.41,376.429L1322.41,357.008ZM1303.71,357.73L1303.71,375.707L1321.69,375.707L1321.69,357.73L1303.71,357.73Z" style="fill:none;"/>
        </g>
        <g transform="matrix(6.53819,0,0,6.53819,-8688.1,-1230.49)">
            <path d="M1288.13,424.982L1268.71,424.982L1268.71,444.403L1288.13,444.403L1288.13,424.982ZM1269.43,425.704L1269.43,443.681L1287.41,443.681L1287.41,425.704L1269.43,425.704Z" style="fill:none;"/>
        </g>
        <g transform="matrix(1,0,0,1,-2258.85,-2014.79)">
            <path d="M2529.99,2959.08C2777.8,3398.31 2900.07,3926.14 3094.35,4729.38C2362.85,4789.08 1375.75,5336.28 1110.75,4703.98C1110.75,4703.98 1155.5,4529.22 1223.75,4363.89C1276.95,4235.02 1426.15,3957.57 1438.55,3932.93C1475.23,3860.05 1573.7,3687.6 1573.7,3687.6C1573.7,3687.6 1584.49,3664.47 1564.77,3656.31C1549.8,3650.11 1540.51,3670.52 1540.51,3670.52L1395.81,3931.98C1363.01,3894.59 1187.42,3737.02 943.237,3636.26C947.796,3631.68 964.795,3614.16 964.795,3614.16C1074.62,3666.32 1294.32,3754.4 1336.52,3784L1708.72,3156.93L1695.13,3148.58C1921.19,3236.71 2264.3,3249.64 2529.99,2959.08ZM1959.55,3582.44L1906.75,3582.44L1906.75,3460.18L2029.05,3460.18L2029.05,3512.97L2131.65,3512.97L2131.65,3460.18L2253.95,3460.18L2253.95,3582.44L2201.75,3582.44L2201.75,3658.78L2245.75,3658.74C2257.45,3658.73 2268.35,3665.01 2274.25,3675.19C2280.05,3685.38 2280.05,3697.92 2274.15,3708.09L2259.85,3732.64L2343.55,3732.64L2343.55,3679.85L2465.85,3679.85L2465.85,3802.11L2343.55,3802.11L2343.55,3749.31L2250.15,3749.31L2201.75,3832.65L2201.75,3910.1L2253.25,3910.1L2253.25,4032.36L2130.95,4032.36L2130.95,3910.1L2185.05,3910.1L2185.05,3835.08L2136.25,3750.38L2027.65,3750.38L2027.65,3803.17L1905.45,3803.17L1905.45,3680.91L1959.55,3680.91L1959.55,3582.44ZM2184.35,3675.44L2140.25,3675.41C2134.45,3675.4 2129.05,3678.48 2126.15,3683.49C2123.25,3688.49 2123.25,3694.66 2126.15,3699.67L2184.35,3800.5L2184.35,3675.44ZM2201.75,3675.44L2201.75,3799.48L2259.75,3699.71C2262.65,3694.71 2262.65,3688.53 2259.75,3683.51C2256.85,3678.49 2251.55,3675.4 2245.75,3675.41L2201.75,3675.44ZM1976.25,3680.91L2027.65,3680.91L2027.65,3733.71L2126.55,3733.71L2111.75,3707.99C2105.85,3697.83 2105.85,3685.31 2111.75,3675.15C2117.65,3664.99 2128.45,3658.73 2140.25,3658.74L2185.05,3658.78L2185.05,3582.44L2131.65,3582.44L2131.65,3529.64L2029.05,3529.64L2029.05,3582.44L1976.25,3582.44L1976.25,3680.91Z" style="fill-opacity:0.5;"/>
        </g>
        <g transform="matrix(0.974418,-0.224743,0.224743,0.974418,-12595.4,-4769.89)">
            <ellipse cx="10550" cy="8012.42" rx="32.215" ry="59.061"/>
        </g>
        <g transform="matrix(0.998539,-0.0540325,0.0540325,0.998539,-10905,-6840.17)">
            <ellipse cx="10550" cy="8012.42" rx="32.215" ry="59.061"/>
        </g>
        <g transform="matrix(0.759184,0,0,0.759184,-8449.31,-5439.96)">
            <path d="M10746.2,8076.17C10746.2,8076.17 10775.9,8141.91 10887,8125.43C10980.1,8111.62 10988.3,8036.76 10988.3,8036.76" style="fill:none;stroke:black;stroke-width:8.41px;"/>
        </g>
        <g transform="matrix(1,0,0,1,-11064.5,-7345.91)">
            <path d="M8806.99,7609.8C8806.99,7609.8 9255.88,7584.88 9499.19,7565.14C10230.7,7505.78 11019.9,7368.56 11159.8,7298.96C11461.5,7148.93 11137,6133.82 11651.1,6706.55C11861.8,6941.34 11948.8,7092.88 11790,7298.8C11675.2,7447.79 11419.8,7553.45 11015,7642.63C10632.9,7726.82 10300.1,7765.66 9937.39,7770.72C9611.82,7775.26 9250.25,7718.13 8806.99,7609.8Z" style="fill-opacity:0.75;"/>
        </g>
        <g transform="matrix(7.37773,0,0,6.9423,-1000.95,2473.31)">
            <path d="M29.777,-208.817C-11.405,-182.017 -37.534,-171.82 -62.819,-144.756C-38.443,-133.834 -14.88,-122.912 8.254,-111.99L56.852,-194.047L29.777,-208.817Z" style="fill-rule:nonzero;"/>
        </g>
        <g transform="matrix(7.88942,-3.17958,-3.17958,-7.88942,598.013,885.322)">
            <path d="M22.164,9.194C22.164,9.194 30.452,5.67 38.042,3.123C41.902,1.828 55.644,-52.58 41.273,-86.716C41.273,-86.716 28.85,-90.094 18.036,-90.9C13.637,-91.228 10.64,-92.452 10.411,-89.911C10.247,-88.096 17.06,-67.667 20.361,-45.461C23.667,-23.226 27.37,0.977 22.164,9.194Z" style="fill-opacity:0.75;fill-rule:nonzero;"/>
        </g>
        <g transform="matrix(8.33333,0,0,8.33333,429.206,685.576)">
            <g transform="matrix(0.878971,0,0,0.878971,3.04096,3.27864)">
                <path d="M-7.57,21.869L-18.417,31.918L-4.928,58.041C15.659,55.438 28.06,56.444 52.109,57.535C48.079,35.027 44.071,16.685 31.509,1.557C16.328,7.258 4.613,12.708 -7.57,21.869Z" style="fill-rule:nonzero;stroke:black;stroke-opacity:0;stroke-width:5.5px;stroke-linecap:butt;stroke-linejoin:miter;stroke-miterlimit:11.339;"/>
            </g>
            <path d="M33.976,103.416L21.595,114.886L36.925,144.575L38.832,144.333C59.249,141.752 71.548,142.764 95.399,143.846L98.837,144.002L98.231,140.614C94.106,117.579 89.896,98.847 77.04,83.364L75.789,81.859L73.957,82.547C58.507,88.349 46.592,93.912 34.192,103.235L33.976,103.416ZM74.032,88.4C60.057,93.732 49.031,98.977 37.605,107.551L28.401,116.078L40.052,138.643C58.706,136.431 70.891,137.197 92.203,138.193C88.598,118.482 84.728,102.1 74.032,88.4Z" style="fill:white;fill-opacity:0;"/>
        </g>
        <g transform="matrix(-5.08815,-4.96868,-4.20967,4.31088,2963.12,-1300.88)">
            <path d="M-11.666,440.518L132.894,48.919L144.885,1.387L-19.964,433.106L-11.666,440.518Z" style="fill-opacity:0.5;fill-rule:nonzero;"/>
        </g>
        <g transform="matrix(7.06007,-0.49537,0.419323,5.97624,1201.69,-1955.66)">
            <path d="M-14.05,445.205L132.186,47.906L144.299,2.44L-20.721,436.777L-14.05,445.205Z" style="fill-rule:nonzero;"/>
        </g>
        <g transform="matrix(5.91939,5.8656,5.8656,-5.91939,1022.2,830.097)">
            <path d="M-8.884,17.037C-30.858,12.113 -31.541,14.56 -44.48,17.657C-50.495,14.032 -45.559,1.053 -42.026,-0.947C-20.691,7.887 -28.751,5.946 -7.373,11.951L-8.884,17.037Z" style="fill-opacity:0.5;fill-rule:nonzero;"/>
        </g>
        <g transform="matrix(-8.16932,-1.64521,1.64521,-8.16932,1233.65,948.581)">
            <path d="M-7.726,17.878C-29.7,12.954 -31.541,14.56 -44.48,17.657C-50.495,14.032 -45.559,1.053 -42.026,-0.947C-20.691,7.887 -27.998,6.894 -6.62,12.899L-7.726,17.878Z" style="fill-opacity:0.5;fill-rule:nonzero;"/>
        </g>
        <g transform="matrix(9.544,1.85286,-1.84006,9.47803,1033.68,820.334)">
            <path d="M1.838,-18.738L17.551,-19.883L30.543,-11.305L28.232,-0.74L-1.204,-8.664L1.838,-18.738Z" style="fill-opacity:0.5;fill-rule:nonzero;"/>
        </g>
        <g transform="matrix(0.906124,-0.423013,0.423013,0.906124,-13516.2,-1450.58)">
            <path d="M12281.3,8214.11L12309.4,8195.35L12409.4,8317.52L12347.1,8380.77L12281.3,8214.11Z" style="fill-opacity:0.75;"/>
        </g>
        <g transform="matrix(1,0,0,1,-16114.3,-7582.34)">
            <path d="M16362.2,6365.34C16255.5,6375.82 16045.6,6342.33 16199.5,6808.72C16247,6952.66 16344.5,7303.17 16344.5,7303.17C16344.5,7303.17 16354.6,7217.1 16361.7,7122.43C16371.5,6991.92 16379.1,6946.49 16384.6,6895.94C16404.9,6711.85 16521.7,6767.25 16521.7,6767.25C16521.7,6767.25 16880.7,7039.87 16856.9,6970.82C16767.7,6711.52 16853.9,6675.87 16801.6,6572.87C16727.4,6426.66 16559,6345.99 16362.2,6365.34Z" style="fill-opacity:0.5;"/>
        </g>
    </g>
</svg>
